<?xml version="1.0" encoding="UTF-8" standalone="no"?>
<!-- Uploaded to: SVG Repo, www.svgrepo.com, Generator: SVG Repo Mixer Tools -->

<svg
   fill="#000000"
   height="249.30299"
   width="1071.3342"
   version="1.1"
   id="Capa_1"
   viewBox="0 0 493.55433 114.8517"
   xml:space="preserve"
   xmlns="http://www.w3.org/2000/svg"
   xmlns:svg="http://www.w3.org/2000/svg"><defs
   id="defs43"><linearGradient
     id="linearGradient4879"><stop
       style="stop-color:#7137c8;stop-opacity:1;"
       offset="0"
       id="stop4877" /></linearGradient></defs>

<g
   id="g647"
   transform="translate(64.981256,5.2784946)"><path
     d="m -19.335066,-5.2784946 a 45.705092,45.705092 0 0 0 -45.64619,45.6461936 c 0,22.616951 35.33899,69.205511 45.64619,69.205511 10.30721,0 45.646204,-46.58856 45.646204,-69.205511 A 45.705092,45.705092 0 0 0 -19.335066,-5.2784946 Z"
     fill="#29b6f6"
     id="path4-3"
     style="fill:#a55eea;fill-opacity:1;stroke-width:5.88983" /><circle
     style="display:inline;fill:#ffffff;fill-opacity:1;stroke:none;stroke-width:8.24484;stroke-miterlimit:4;stroke-dasharray:none;stroke-opacity:1;stop-color:#000000"
     id="path4873-3"
     cx="-19.335035"
     cy="40.367702"
     r="33.130299" /><path
     d="m -33.912206,26.922593 c -3.29074,0 -5.9675,2.676772 -5.9675,5.967503 0,3.290732 2.67676,5.967501 5.9675,5.967501 3.29073,0 5.9675,-2.676769 5.9675,-5.967501 0,-3.290731 -2.67677,-5.967503 -5.9675,-5.967503"
     style="display:inline;fill:#a55eea;fill-opacity:1;fill-rule:nonzero;stroke:none;stroke-width:0.0610301"
     id="path42" /><path
     d="m -4.757906,26.922593 c -3.29072,0 -5.9675,2.676772 -5.9675,5.967503 0,3.290732 2.67678,5.967501 5.9675,5.967501 3.29012,0 5.96749,-2.676769 5.96749,-5.967501 0,-3.290731 -2.67737,-5.967503 -5.96749,-5.967503"
     style="display:inline;fill:#a55eea;fill-opacity:1;fill-rule:nonzero;stroke:none;stroke-width:0.0610301"
     id="path44" /><path
     d="m -19.460986,59.328765 c -5.77733,0 -10.47717,-4.274456 -10.47717,-9.528431 0,-0.799705 0.71244,-1.44766 1.59122,-1.44766 h 17.77088 c 0.87879,0 1.59173,0.647955 1.59173,1.44766 0,5.253975 -4.69983,9.528431 -10.47666,9.528431"
     style="display:inline;fill:#a55eea;fill-opacity:1;fill-rule:nonzero;stroke:none;stroke-width:0.0482207"
     id="path84" /></g><g
   aria-label="VROXY"
   id="text405"
   style="font-weight:bold;font-size:104.423px;font-family:Quicksand;-inkscape-font-specification:'Quicksand Bold';fill-opacity:1;stroke-width:0.460691;stroke-opacity:0.8;fill:#333333"
   transform="translate(12.587635)"><path
     d="m 155.44445,79.230085 -18.65226,-56.43885 c -0.74164,-2.299086 -2.262,-3.337382 -4.63525,-3.337382 h -6.6006 c -3.00365,0 -4.3386,1.854101 -3.33738,4.672335 l 23.95499,67.971361 c 0.77872,2.262004 2.262,3.300301 4.63525,3.300301 h 10.01215 c 2.37325,0 3.85653,-1.038297 4.63525,-3.300301 l 23.99208,-67.971361 c 1.00121,-2.818234 -0.33374,-4.672335 -3.33739,-4.672335 h -6.63768 c -2.37325,0 -3.89361,1.038296 -4.63525,3.337382 l -18.61518,56.43885 z"
     style="font-weight:600;font-family:'Open Runde';-inkscape-font-specification:'Open Runde Semi-Bold';fill:#333333;fill-opacity:1"
     id="path2055" /><path
     d="m 201.09252,23.532876 v 67.785951 c 0,2.632824 1.4462,4.079023 4.07902,4.079023 h 5.59939 c 2.63283,0 4.07902,-1.446199 4.07902,-4.079023 V 67.586328 h 14.01701 l 13.34953,24.919124 c 1.07538,2.002429 2.55866,2.892398 4.82067,2.892398 h 6.56352 c 3.18905,0 4.37568,-2.039512 2.85531,-4.857746 L 242.69856,65.287242 c 8.93677,-3.596957 13.64619,-11.235855 13.64619,-21.54466 0,-14.499074 -9.34468,-24.288729 -26.77323,-24.288729 h -24.39998 c -2.63282,0 -4.07902,1.446199 -4.07902,4.079023 z m 13.75743,32.632186 v -25.21578 h 12.6079 c 10.27172,0 14.86989,4.709418 14.86989,12.7933 0,8.083883 -4.59817,12.42248 -14.79573,12.42248 z"
     style="font-weight:600;font-family:'Open Runde';-inkscape-font-specification:'Open Runde Semi-Bold';fill:#333333;fill-opacity:1"
     id="path2057" /><path
     d="m 336.88689,57.425851 c 0,-24.548304 -14.98114,-39.010295 -34.89419,-39.010295 -19.95013,0 -34.89419,14.461991 -34.89419,39.010295 0,24.511222 14.94406,39.010296 34.89419,39.010296 19.91305,0 34.89419,-14.461992 34.89419,-39.010296 z m -55.95678,0 c 0,-17.280226 8.71428,-26.661979 21.06259,-26.661979 12.3854,0 21.0626,9.381753 21.0626,26.661979 0,17.280226 -8.6772,26.66198 -21.0626,26.66198 -12.34831,0 -21.06259,-9.381754 -21.06259,-26.66198 z"
     style="font-weight:600;font-family:'Open Runde';-inkscape-font-specification:'Open Runde Semi-Bold';fill:#333333;fill-opacity:1"
     id="path2059" /><path
     d="m 375.41527,47.265375 -15.0553,-25.067452 c -1.14955,-1.891184 -2.66991,-2.74407 -4.89483,-2.74407 h -6.74893 c -3.3003,0 -4.44984,2.150757 -2.70699,4.93191 l 20.61761,33.040088 -20.87718,33.040089 c -1.74286,2.781152 -0.59332,4.93191 2.70699,4.93191 h 6.82309 c 2.22492,0 3.74528,-0.852887 4.89483,-2.74407 l 15.24071,-24.882042 h 0.59331 L 391.2493,92.65378 c 1.14954,1.891183 2.6699,2.74407 4.89483,2.74407 h 6.93434 c 3.3003,0 4.44984,-2.150758 2.70698,-4.93191 l -20.69177,-33.040089 20.35804,-33.07717 c 1.70577,-2.781153 0.51914,-4.894828 -2.74407,-4.894828 h -6.67477 c -2.22492,0 -3.74528,0.852886 -4.89483,2.74407 l -15.12947,25.067452 z"
     style="font-weight:600;font-family:'Open Runde';-inkscape-font-specification:'Open Runde Semi-Bold';fill:#333333;fill-opacity:1"
     id="path2061" /><path
     d="m 426.3659,19.453853 h -6.63768 c -3.22614,0 -4.44985,2.076593 -2.81824,4.894828 l 24.80788,42.718498 v 24.251648 c 0,2.632824 1.4462,4.079023 4.07903,4.079023 h 5.5623 c 2.63282,0 4.07902,-1.446199 4.07902,-4.079023 V 67.067179 l 24.80788,-42.718498 c 1.63161,-2.818235 0.4079,-4.894828 -2.81823,-4.894828 h -6.63769 c -2.262,0 -3.78236,0.889968 -4.85774,2.855316 l -16.98357,30.741003 h -0.74164 L 431.22365,22.309169 c -1.07538,-1.965348 -2.59574,-2.855316 -4.85775,-2.855316 z"
     style="font-weight:600;font-family:'Open Runde';-inkscape-font-specification:'Open Runde Semi-Bold';fill:#333333;fill-opacity:1"
     id="path2063" /></g></svg>
