<?xml version="1.0" encoding="UTF-8" standalone="no"?>
<svg
   version="1.0"
   width="4317.4355pt"
   height="1024pt"
   viewBox="0 0 4317.4355 1024"
   preserveAspectRatio="xMidYMid"
   id="svg12"
   xml:space="preserve"
   xmlns="http://www.w3.org/2000/svg"
   xmlns:svg="http://www.w3.org/2000/svg"><defs
     id="defs16"><style
       id="style1896">
      .st0 {
        fill: #fff;
      }
    </style></defs><g
     id="g5149"
     transform="matrix(0.1,0,0,-0.1,-646.37378,80.521502)"><g
       id="g5154"
       transform="translate(747.93528)"><path
         d="m 1061.5644,762.89778 c 56.32,-83.05778 80.2134,-176.35556 80.2134,-275.91111 C 1141.7778,279.91111 891.46667,4 686.66667,4 c -204.8,0 -455.11111,275.91111 -455.11111,482.98667 0,99.55555 23.89333,192.85333 80.21333,275.91111 C 130.86222,837.99111 4,920.48 4,1129.8311 v 97.28 c 0,78.5636 63.658667,142.2222 142.22222,142.2222 H 1227.1111 c 78.5636,0 142.2222,-63.6586 142.2222,-142.2222 v -97.28 c 0,-209.3511 -126.8622,-291.83999 -307.7689,-366.93332 z"
         id="path1900"
         style="fill:#ffffff;fill-opacity:1;stroke-width:56.8889"
         transform="matrix(7.5,0,0,-7.5,5685.8025,835.21502)" /><path
         class="st0"
         d="m 719.54844,928.50133 c -20.70755,10.18311 -44.99911,10.18311 -65.70666,0 -124.07467,-61.09866 -204.62934,-179.2 -239.21778,-357.60355 -7.85067,-28.50134 -12.34489,-55.97867 -12.34489,-81.06667 0.17067,-0.17067 0.39822,-0.34133 0.56889,-0.56889 -2.27556,-30.83378 15.24622,-59.96089 43.97511,-71.90755 l 212.13867,-88.40534 c 17.74933,-7.39555 37.77422,-7.39555 55.52355,0 L 926.624,417.35467 c 28.72889,11.94666 46.25067,41.07377 43.97511,71.90755 0.17067,0.17067 0.39822,0.34134 0.56889,0.56889 0,25.088 -4.55111,52.56533 -12.34489,81.06667 C 924.23467,749.30133 843.68,867.40267 719.60533,928.50133 Z"
         id="path1902"
         style="stroke-width:56.8889;fill:#333333;fill-opacity:1"
         transform="matrix(7.5,0,0,-7.5,5685.8025,835.21502)" /></g><g
       aria-label="Cloaq"
       transform="matrix(0.86114153,0,0,-0.86114153,3862.3804,-717.04509)"
       id="text4992"
       style="font-weight:600;font-size:10003.6px;font-family:'Open Runde';-inkscape-font-specification:'Open Runde Semi-Bold';text-align:center;letter-spacing:150px;text-anchor:middle;fill:#ffffff;fill-opacity:1;stroke-width:1323.99"><g
         aria-label="CLOAQ"
         id="text398-3"
         style="font-size:9870.62px;letter-spacing:304.828px;stroke-width:261.281;fill:#ffffff;fill-opacity:1"><path
           d="m 23976.769,3393.6408 h 539.8 c 269.899,0 417.117,-161.2389 343.508,-424.1282 -361.034,-1331.9729 -1507.232,-2096.10475 -2951.371,-2096.10475 -1875.278,0 -3287.87,1367.02485 -3287.87,3687.46175 0,2316.9318 1395.066,3687.4618 3287.87,3687.4618 1528.263,0 2593.842,-883.3083 2944.361,-2054.0424 80.619,-259.3842 -70.104,-420.623 -340.004,-420.623 l -536.294,-3.5052 c -227.838,0 -350.519,105.1558 -438.149,322.4776 -259.384,637.945 -872.793,988.4641 -1612.388,988.4641 -1163.724,0 -1997.96,-872.7927 -1997.96,-2520.2329 0,-1619.3986 827.226,-2520.2329 2001.465,-2520.2329 753.616,0 1367.025,368.0452 1615.893,1023.516 84.125,217.3219 203.301,329.4881 431.139,329.4881 z"
           id="path1193"
           style="fill:#ffffff;fill-opacity:1" /><path
           d="m 26447.811,1357.1243 v 6407.4906 c 0,248.8687 136.702,385.5711 385.571,385.5711 h 3690.967 c 248.869,0 385.571,-136.7024 385.571,-385.5711 v -318.9724 c 0,-248.8686 -136.702,-385.5711 -385.571,-385.5711 H 27748.237 V 1357.1243 c 0,-248.8686 -136.702,-385.57108 -385.571,-385.57108 h -529.284 c -248.869,0 -385.571,136.70248 -385.571,385.57108 z"
           id="path1195"
           style="fill:#ffffff;fill-opacity:1" /><path
           d="m 38473.996,4560.8696 c 0,-2320.4369 -1416.098,-3687.46175 -3298.386,-3687.46175 -1885.793,0 -3298.385,1367.02485 -3298.385,3687.46175 0,2316.9318 1412.592,3687.4618 3298.385,3687.4618 1882.288,0 3298.386,-1367.0248 3298.386,-3687.4618 z m -5289.335,0 c 0,-1633.4194 823.72,-2520.2329 1990.949,-2520.2329 1170.734,0 1990.949,886.8135 1990.949,2520.2329 0,1633.4194 -820.215,2520.2329 -1990.949,2520.2329 -1167.229,0 -1990.949,-886.8135 -1990.949,-2520.2329 z"
           id="path1197"
           style="fill:#ffffff;fill-opacity:1" /><path
           d="m 39634.092,8150.186 h 585.367 c 224.332,0 368.045,-101.6505 438.149,-315.4672 l 487.221,-1454.6546 h 2698.998 l 490.727,1454.6546 c 70.104,213.8167 213.816,315.4672 438.149,315.4672 h 585.367 c 283.92,0 410.107,-175.2596 315.467,-441.6541 L 43405.678,1283.5153 c -73.609,-213.8167 -213.817,-311.96208 -438.149,-311.96208 h -946.402 c -224.332,0 -364.54,98.14538 -438.149,311.96208 l -2264.354,6425.0166 c -94.64,266.3945 31.547,441.6541 315.468,441.6541 z m 1861.256,-2814.669 970.938,-2891.7832 h 56.084 l 970.938,2891.7832 z"
           id="path1199"
           style="fill:#ffffff;fill-opacity:1" /><path
           d="m 53157.015,4560.8696 c 0,-2320.4369 -1416.097,-3687.46175 -3298.385,-3687.46175 -1885.794,0 -3298.386,1367.02485 -3298.386,3687.46175 0,2316.9318 1412.592,3687.4618 3298.386,3687.4618 455.675,0 883.308,-80.6194 1272.384,-234.8478 l 413.613,525.7787 c 126.187,161.2388 266.394,227.8375 469.696,227.8375 h 371.55 c 325.983,0 431.138,-210.3115 231.343,-469.6957 l -627.43,-806.1941 c 722.07,-630.9345 1167.229,-1629.9142 1167.229,-2930.3404 z m -5289.334,0 c 0,-1633.4194 823.72,-2520.2329 1990.949,-2520.2329 1170.734,0 1990.949,886.8135 1990.949,2520.2329 0,883.3084 -238.354,1545.7896 -644.956,1969.9178 l -431.138,-560.8307 c -122.682,-161.2388 -266.395,-231.3426 -469.696,-231.3426 h -294.436 c -322.478,0 -431.139,210.3115 -234.848,469.6957 l 613.409,806.1941 c -168.25,45.5675 -343.509,66.5986 -529.284,66.5986 -1167.229,0 -1990.949,-886.8135 -1990.949,-2520.2329 z"
           id="path1201"
           style="fill:#ffffff;fill-opacity:1" /></g></g></g></svg>
