<?xml version="1.0" encoding="UTF-8" standalone="no"?>
<svg
   version="1.0"
   width="3735.5964pt"
   height="1024.0005pt"
   viewBox="0 0 3735.5964 1024.0005"
   preserveAspectRatio="xMidYMid"
   id="svg12"
   xml:space="preserve"
   xmlns="http://www.w3.org/2000/svg"
   xmlns:svg="http://www.w3.org/2000/svg"><defs
     id="defs16"><style
       id="style1896">
      .st0 {
        fill: #fff;
      }
    </style></defs><g
     id="g5149"
     transform="matrix(0.1,0,0,-0.1,-646.3738,80.521725)"><g
       id="g5154"
       transform="translate(747.93528)"><path
         d="m 1061.5644,762.89778 c 56.32,-83.05778 80.2134,-176.35556 80.2134,-275.91111 C 1141.7778,279.91111 891.46667,4 686.66667,4 c -204.8,0 -455.11111,275.91111 -455.11111,482.98667 0,99.55555 23.89333,192.85333 80.21333,275.91111 C 130.86222,837.99111 4,920.48 4,1129.8311 v 97.28 c 0,78.5636 63.658667,142.2222 142.22222,142.2222 H 1227.1111 c 78.5636,0 142.2222,-63.6586 142.2222,-142.2222 v -97.28 c 0,-209.3511 -126.8622,-291.83999 -307.7689,-366.93332 z"
         id="path1900"
         style="fill:#333333;fill-opacity:1;stroke-width:56.8889"
         transform="matrix(7.5,0,0,-7.5,5685.8025,835.21502)" /><path
         class="st0"
         d="m 719.54844,928.50133 c -20.70755,10.18311 -44.99911,10.18311 -65.70666,0 -124.07467,-61.09866 -204.62934,-179.2 -239.21778,-357.60355 -7.85067,-28.50134 -12.34489,-55.97867 -12.34489,-81.06667 0.17067,-0.17067 0.39822,-0.34133 0.56889,-0.56889 -2.27556,-30.83378 15.24622,-59.96089 43.97511,-71.90755 l 212.13867,-88.40534 c 17.74933,-7.39555 37.77422,-7.39555 55.52355,0 L 926.624,417.35467 c 28.72889,11.94666 46.25067,41.07377 43.97511,71.90755 0.17067,0.17067 0.39822,0.34134 0.56889,0.56889 0,25.088 -4.55111,52.56533 -12.34489,81.06667 C 924.23467,749.30133 843.68,867.40267 719.60533,928.50133 Z"
         id="path1902"
         style="stroke-width:56.8889"
         transform="matrix(7.5,0,0,-7.5,5685.8025,835.21502)" /></g><g
       aria-label="Cloq"
       transform="matrix(0.86114153,0,0,-0.86114153,3862.3804,-717.04509)"
       id="text4992"
       style="font-weight:600;font-size:10003.6px;font-family:'Open Runde';-inkscape-font-specification:'Open Runde Semi-Bold';text-align:center;letter-spacing:150px;text-anchor:middle;fill:#333333;fill-opacity:1;stroke-width:1323.99"><path
         d="m 24124.369,3393.9524 h 547.072 c 273.536,0 422.738,-163.411 348.137,-429.8421 C 24653.679,1614.1927 23492.04,839.76632 22028.445,839.76632 c -1900.542,0 -3332.165,1385.44168 -3332.165,3737.14018 0,2348.1461 1413.861,3737.1402 3332.165,3737.1402 1548.853,0 2628.787,-895.2085 2984.028,-2081.715 81.706,-262.8786 -71.048,-426.2897 -344.584,-426.2897 l -543.52,-3.5524 c -230.907,0 -355.241,106.5724 -444.051,326.8221 -262.879,646.5395 -884.552,1001.7809 -1634.111,1001.7809 -1179.402,0 -2024.877,-884.5512 -2024.877,-2554.1861 0,-1641.2155 838.37,-2554.1861 2028.429,-2554.1861 763.769,0 1385.442,373.0035 1637.663,1037.3051 85.258,220.2497 206.04,333.9269 436.947,333.9269 z"
         id="path397"
         style="fill:#333333;fill-opacity:1" /><path
         d="m 26469.767,1329.9995 v 6493.814 c 0,252.2214 138.544,390.7656 390.765,390.7656 h 3740.693 c 252.221,0 390.765,-138.5442 390.765,-390.7656 v -323.2697 c 0,-252.2215 -138.544,-390.7656 -390.765,-390.7656 H 27787.712 V 1329.9995 c 0,-252.2214 -138.544,-390.76557 -390.765,-390.76557 h -536.415 c -252.221,0 -390.765,138.54417 -390.765,390.76557 z"
         id="path399"
         style="fill:#333333;fill-opacity:1" /><path
         d="m 38499.035,4576.9065 c 0,-2351.6985 -1435.175,-3737.14018 -3342.822,-3737.14018 -1911.199,0 -3342.822,1385.44168 -3342.822,3737.14018 0,2348.1461 1431.623,3737.1402 3342.822,3737.1402 1907.647,0 3342.822,-1385.4417 3342.822,-3737.1402 z m -5360.593,0 c 0,-1655.4252 834.817,-2554.1861 2017.771,-2554.1861 1186.507,0 2017.772,898.7609 2017.772,2554.1861 0,1655.4252 -831.265,2554.1861 -2017.772,2554.1861 -1182.954,0 -2017.771,-898.7609 -2017.771,-2554.1861 z"
         id="path401"
         style="fill:#333333;fill-opacity:1" /><path
         d="m 46400.41,4576.9065 c 0,-2351.6985 -1435.175,-3737.14018 -3342.822,-3737.14018 -1911.199,0 -3342.822,1385.44168 -3342.822,3737.14018 0,2348.1461 1431.623,3737.1402 3342.822,3737.1402 461.814,0 895.209,-81.7055 1289.527,-238.0118 l 419.185,532.8622 c 127.887,163.4111 269.983,230.907 476.023,230.907 h 376.556 c 330.375,0 436.947,-213.1449 234.46,-476.0236 l -635.883,-817.0553 c 731.798,-639.4347 1182.954,-1651.8729 1182.954,-2969.8187 z m -5360.593,0 c 0,-1655.4252 834.817,-2554.1861 2017.771,-2554.1861 1186.507,0 2017.772,898.7609 2017.772,2554.1861 0,895.2085 -241.564,1566.6149 -653.644,1996.457 l -436.947,-568.3863 c -124.335,-163.4111 -269.984,-234.4594 -476.024,-234.4594 h -298.403 c -326.822,0 -436.947,213.1449 -238.012,476.0236 l 621.673,817.0554 c -170.516,46.1814 -348.137,67.4958 -536.415,67.4958 -1182.954,0 -2017.771,-898.7609 -2017.771,-2554.1861 z"
         id="path403"
         style="fill:#333333;fill-opacity:1" /></g></g></svg>
