<?xml version="1.0" encoding="UTF-8" standalone="no"?>
<svg
   version="1.0"
   width="2048pt"
   height="2048pt"
   viewBox="0 0 2048 2048"
   preserveAspectRatio="xMidYMid"
   id="svg12"
   xml:space="preserve"
   xmlns="http://www.w3.org/2000/svg"
   xmlns:svg="http://www.w3.org/2000/svg"><defs
     id="defs16"><style
       id="style1896">
      .st0 {
        fill: #fff;
      }
    </style></defs><g
     transform="matrix(0.1,0,0,-0.1,-951.24297,279.73528)"
     fill="#000000"
     stroke="none"
     id="g10"><rect
       style="fill:#ffffff;fill-opacity:1;stroke-width:447.439"
       id="rect2151"
       width="20480"
       height="20480"
       x="9512.4297"
       y="-2797.3528"
       transform="scale(1,-1)" /><g
       id="g2156"
       transform="translate(-62.7663,-2322.6473)"><path
         d="m 22626.929,-5691.7332 c 422.4,622.9334 601.601,1322.6667 601.601,2069.3333 0,1553.0667 -1877.334,3622.400055 -3413.334,3622.400055 -1536,0 -3413.333,-2069.333355 -3413.333,-3622.400055 0,-746.6666 179.2,-1446.3999 601.6,-2069.3333 -1356.8,-563.2 -2308.267,-1181.8666 -2308.267,-2751.9999 v -729.6 c 0,-589.227 477.44,-1066.6669 1066.667,-1066.6669 h 8106.666 c 589.227,0 1066.667,477.4399 1066.667,1066.6669 v 729.6 c 0,1570.1333 -951.467,2188.7999 -2308.267,2751.9999 z"
         id="path1900"
         style="fill:#333333;fill-opacity:1;stroke-width:426.667" /><path
         class="st0"
         d="m 20061.383,-6933.7598 c -155.307,-76.3733 -337.494,-76.3733 -492.8,0 -930.56,458.2399 -1534.72,1344 -1794.134,2682.0266 -58.88,213.7601 -92.586,419.84 -92.586,608 1.28,1.2801 2.986,2.56 4.266,4.2667 -17.066,231.2534 114.347,449.7067 329.814,539.3066 l 1591.04,663.0401 c 133.12,55.4666 283.306,55.4666 416.426,0 l 1591.04,-663.0401 c 215.467,-89.5999 346.88,-308.0532 329.814,-539.3066 1.28,-1.28 2.986,-2.56 4.266,-4.2667 0,-188.16 -34.133,-394.2399 -92.586,-608 -259.414,-1338.0266 -863.574,-2223.7867 -1794.134,-2682.0266 z"
         id="path1902"
         style="stroke-width:426.667" /></g></g></svg>
