<?xml version="1.0" encoding="UTF-8" standalone="no"?>
<!-- Uploaded to: SVG Repo, www.svgrepo.com, Generator: SVG Repo Mixer Tools -->

<svg
   fill="#000000"
   height="250.00002"
   width="1088"
   version="1.1"
   id="Capa_1"
   viewBox="0 0 501.2321 115.17281"
   xml:space="preserve"
   xmlns="http://www.w3.org/2000/svg"
   xmlns:svg="http://www.w3.org/2000/svg"><defs
   id="defs43"><linearGradient
     id="linearGradient4879"><stop
       style="stop-color:#7137c8;stop-opacity:1;"
       offset="0"
       id="stop4877" /></linearGradient></defs>

<g
   id="g1119"
   transform="translate(-1113.9055,-141.02723)"><g
     id="g556"
     transform="matrix(0.11247345,0,0,0.11247345,1096.9441,141.02723)"
     style="fill:#ffffff"><g
       transform="matrix(0.1,0,0,-0.1,491.85483,996.17319)"
       fill="#000000"
       stroke="none"
       id="g64"
       style="fill:#ffffff"><g
         style="fill:#ffffff"
         id="g513"
         transform="matrix(27.784335,0,0,-27.784335,-19949.494,15000.438)"><g
           id="g487"
           transform="translate(54.2765)"
           style="fill:#ffffff">
	<g
   id="g455"
   style="fill:#ffffff">
		<path
   d="m 670.98634,181.35061 c -71.683,0 -130,58.317 -130,130 0,87.26 119.188,229.855 124.263,235.883 1.417,1.685 3.504,2.66 5.705,2.67 h 0.032 c 2.189,0 4.271,-0.957 5.696,-2.621 5.075,-5.926 124.304,-146.165 124.304,-235.932 -0.001,-71.683 -58.317,-130 -130,-130 z"
   id="path451"
   style="fill:#ffffff;fill-opacity:1" />
		
	</g>
	<g
   id="g457"
   style="fill:#ffffff">
	</g>
	<g
   id="g459"
   style="fill:#ffffff">
	</g>
	<g
   id="g461"
   style="fill:#ffffff">
	</g>
	<g
   id="g463"
   style="fill:#ffffff">
	</g>
	<g
   id="g465"
   style="fill:#ffffff">
	</g>
	<g
   id="g467"
   style="fill:#ffffff">
	</g>
	<g
   id="g469"
   style="fill:#ffffff">
	</g>
	<g
   id="g471"
   style="fill:#ffffff">
	</g>
	<g
   id="g473"
   style="fill:#ffffff">
	</g>
	<g
   id="g475"
   style="fill:#ffffff">
	</g>
	<g
   id="g477"
   style="fill:#ffffff">
	</g>
	<g
   id="g479"
   style="fill:#ffffff">
	</g>
	<g
   id="g481"
   style="fill:#ffffff">
	</g>
	<g
   id="g483"
   style="fill:#ffffff">
	</g>
	<g
   id="g485"
   style="fill:#ffffff">
	</g>
</g></g></g><g
       id="g10"
       transform="matrix(0.05648282,0,0,-0.05648282,-2444.5277,897.83093)"
       style="fill:#333333;fill-opacity:1"><path
         d="m 56668.39,11832.077 c -1139.5,-469.4 -2657.6,-756 -4324.6,-756.4 -1666.9,0.4 -3185,287 -4324.5,756.4 0,0 -986.79,-1215.7 -986.8,-1709.1 0,-527.2005 1648.2,-1907.8005 3328.4,-2082.0005 1047.2,-108.6 1857.6,676.2 1982.9,805.3 125.4,-129.1 935.8,-913.9 1983,-805.3 1680.2,174.2 3328.4,1554.8 3328.4,2082.0005 0,493.4 -986.8,1709.1 -986.8,1709.1 z m -7897.8,-1319.4 2646.1,-560.1005 c 0,0 -1487.2,-1835 -2646.1,560.1005 z m 4500.4,-560.1005 2646.1,560.1005 c -1158.9,-2395.1005 -2646.1,-560.1005 -2646.1,-560.1005"
         style="fill:#333333;fill-opacity:1;fill-rule:nonzero;stroke:none"
         id="path14" /></g></g><g
     aria-label="VROXY"
     id="text772"
     style="font-size:104.423px;font-family:Anta;-inkscape-font-specification:Anta;text-align:center;letter-spacing:2.16793px;text-anchor:middle;fill:#ffffff;stroke-width:0.770735"
     transform="matrix(1.0538957,0,0,1.0538957,-76.399396,-10.704416)"><path
       d="m 1258.0569,162.36131 21.2109,59.45177 21.1599,-59.45177 H 1311.9 l -25.9528,72.50464 h -13.4098 l -25.9528,-72.50464 z"
       id="path1457"
       style="fill:#ffffff" /><path
       d="m 1323.2457,162.36131 h 38.3428 q 4.9458,0 8.9739,2.44742 4.079,2.39642 6.4754,6.42446 2.4474,4.02803 2.4474,8.97385 v 7.24027 q 0,4.94581 -2.3964,8.92286 -2.3454,3.97705 -6.4244,6.32249 -4.0791,2.34543 -9.1269,2.34543 l 21.6189,29.82786 h -13.1039 l -21.6188,-29.82786 h -8.311 v -10.70743 h 21.4658 q 3.0083,0 5.0988,-2.03951 2.0905,-2.0905 2.0905,-4.99681 v -7.0873 q 0,-2.95729 -2.0905,-5.04779 -2.0905,-2.0905 -5.0988,-2.0905 h -27.5844 v 61.7972 h -10.7584 z"
       id="path1454"
       style="fill:#ffffff" /><path
       d="m 1395.5218,182.75643 q 0,-5.65965 2.9063,-10.24855 2.9573,-4.63989 7.8522,-7.39323 4.8948,-2.75334 10.8604,-2.75334 h 16.9789 q 5.9656,0 10.8604,2.75334 4.9458,2.75334 7.8521,7.39323 2.9063,4.5889 2.9063,10.24855 v 31.71441 q 0,5.60865 -2.9063,10.24854 -2.9063,4.63989 -7.8521,7.39323 -4.8948,2.75334 -10.8604,2.75334 h -16.9789 q -5.9656,0 -10.8604,-2.75334 -4.8949,-2.75334 -7.8522,-7.39323 -2.9063,-4.63989 -2.9063,-10.24854 z m 10.7585,31.76539 q 0,3.97705 3.1612,6.83237 3.2122,2.80433 7.6992,2.80433 h 16.9789 q 4.5379,0 7.6992,-2.80433 3.1612,-2.85532 3.1612,-6.83237 v -31.81638 q 0,-3.97705 -3.1612,-6.78138 -3.1613,-2.85531 -7.6992,-2.85531 h -16.9789 q -4.487,0 -7.6992,2.85531 -3.1612,2.80433 -3.1612,6.78138 z"
       id="path1451"
       style="fill:#ffffff" /><path
       d="m 1493.3429,198.61363 -26.2587,-36.25232 h 13.1548 l 19.8343,27.48242 19.7832,-27.48242 h 13.1039 l -26.2077,36.25232 26.2077,36.25232 h -13.1039 l -19.7832,-27.53341 -19.8343,27.53341 h -13.1548 z"
       id="path1448"
       style="fill:#ffffff" /><path
       d="m 1552.3112,162.36131 19.8853,27.48242 19.7832,-27.48242 h 13.0529 l -27.3295,37.88393 v 34.62071 h -11.0133 v -34.62071 l -27.4824,-37.88393 z"
       id="path1445"
       style="fill:#ffffff" /></g></g></svg>
