<?xml version="1.0" encoding="UTF-8" standalone="no"?>
<svg
   version="1.1"
   id="svg2"
   width="1124.467"
   height="241.46875"
   viewBox="0 0 1124.467 241.46874"
   xmlns="http://www.w3.org/2000/svg"
   xmlns:svg="http://www.w3.org/2000/svg">
  <defs
     id="defs6">
    <linearGradient
       id="linearGradient4879">
      <stop
         style="stop-color:#7137c8;stop-opacity:1;"
         offset="0"
         id="stop4877" />
    </linearGradient>
  </defs>
  <g
     id="g8"
     transform="matrix(1.3333333,0,0,-1.3333333,-222.32226,238.31706)"
     style="display:inline">
    <path
       d="m 385.96918,170.53886 c -7.363,0 -14.007,3.916 -16.926,9.977 -0.755,1.566 -0.097,3.447 1.469,4.201 1.567,0.753 3.448,0.096 4.202,-1.469 1.877,-3.897 6.295,-6.414 11.255,-6.414 4.96,0 9.377,2.517 11.255,6.414 0.755,1.565 2.636,2.222 4.201,1.469 1.566,-0.754 2.224,-2.635 1.47,-4.201 -2.92,-6.061 -9.563,-9.977 -16.926,-9.977"
       style="display:none;fill:#ffffff;fill-opacity:1;fill-rule:nonzero;stroke:none;stroke-width:0.1"
       id="path46" />
    <g
       id="g1147"
       transform="translate(-40.591833)">
      <g
         id="g974"
         transform="translate(-89.035577,-111.83447)">
        <g
           id="g1928">
          <path
             style="color:#000000;fill:#ffffff;-inkscape-stroke:none"
             d="m 386.91992,-290.57227 c -49.91173,0 -90.55078,40.63906 -90.55078,90.55079 0,49.91172 40.63905,90.55078 90.55078,90.55078 49.91174,0 90.54883,-40.63906 90.54883,-90.55078 0,-49.91173 -40.63709,-90.55079 -90.54883,-90.55079 z m 0,16.5 c 40.99449,0 74.04883,33.05631 74.04883,74.05079 0,40.99447 -33.05434,74.05078 -74.04883,74.05078 -40.99448,0 -74.05078,-33.05631 -74.05078,-74.05078 0,-40.99448 33.0563,-74.05079 74.05078,-74.05079 z"
             id="path4873"
             transform="scale(1,-1)" />
          <path
             id="path4873-3"
             style="display:inline;fill:#ffffff;stroke-width:13.0049;stop-color:#000000"
             d="m 447.60478,-197.02167 a 60.685436,45 0 0 1 -60.68544,45 60.685436,45 0 0 1 -60.68543,-45 60.685436,45 0 0 1 60.68543,-45 60.685436,45 0 0 1 60.68544,45 z"
             transform="scale(1,-1)" />
          <path
             id="rect5622-7-5"
             style="display:inline;fill:#ffffff;stroke-width:6.12155;stop-color:#000000"
             transform="scale(1,-1)"
             d="m 304.62071,-290.57187 c 4.57138,0 8.25159,3.68021 8.25159,8.2516 v 81.55123 c 0,4.57139 -3.68021,8.2516 -8.25159,8.2516 -4.57139,0 -8.2516,-3.68021 -8.2516,-8.2516 v -81.55123 c 0,-4.57139 3.68021,-8.2516 8.2516,-8.2516 z" />
          <path
             id="rect5622-7-5-2"
             style="display:inline;fill:#ffffff;stroke-width:6.12155;stop-color:#000000"
             transform="scale(1,-1)"
             d="m 469.21797,-290.57187 c 4.57138,0 8.25159,3.68021 8.25159,8.2516 v 81.55123 c 0,4.57139 -3.68021,8.2516 -8.25159,8.2516 -4.57139,0 -8.2516,-3.68021 -8.2516,-8.2516 v -81.55123 c 0,-4.57139 3.68021,-8.2516 8.2516,-8.2516 z" />
          <g
             id="g14963"
             clip-path="none"
             transform="matrix(0.1,0,0,0.1,5.3623619e-5,1.2188046)">
            <g
               id="g14961">
              <path
                 d="m 3560.2618,2126.2986 c -53.92,0 -97.78,-43.86 -97.78,-97.78 0,-53.92 43.86,-97.78 97.78,-97.78 53.92,0 97.78,43.86 97.78,97.78 0,53.92 -43.86,97.78 -97.78,97.78"
                 style="display:inline;fill:#a55eea;fill-opacity:1;fill-rule:nonzero;stroke:none"
                 id="path42" />
              <path
                 d="m 4178.1238,2126.2986 c -53.92,0 -97.78,-43.86 -97.78,-97.78 0,-53.92 43.86,-97.78 97.78,-97.78 53.91,0 97.78,43.86 97.78,97.78 0,53.92 -43.87,97.78 -97.78,97.78"
                 style="display:inline;fill:#a55eea;fill-opacity:1;fill-rule:nonzero;stroke:none"
                 id="path44" />
              <path
                 d="m 3869.1974,1669.7587 c -94.664,0 -171.6727,70.0387 -171.6727,156.1273 0,13.1035 11.6736,23.7205 26.0728,23.7205 h 291.1833 c 14.3993,0 26.0811,-10.617 26.0811,-23.7205 0,-86.0886 -77.0087,-156.1273 -171.6645,-156.1273"
                 style="fill:#a55eea;fill-opacity:1;fill-rule:nonzero;stroke:none;stroke-width:0.790115"
                 id="path84" />
            </g>
          </g>
        </g>
      </g>
      <g
         aria-label="VROXY"
         transform="scale(1,-1)"
         id="text1030"
         style="font-weight:bold;font-size:180px;font-family:Quicksand;-inkscape-font-specification:'Quicksand Bold';fill:#ffffff;stroke-width:0.75">
        <path
           d="m 558.74361,-151.54701 q 4.5,0 7.74,3.06 3.42,2.88 3.42,7.38 0,2.34 -1.08,4.86 l -44.46,104.039998 q -1.62,3.6 -4.68,5.4 -2.88,1.62 -5.94,1.62 -2.88,-0.18 -5.58,-1.8 -2.7,-1.8 -4.14,-5.04 l -44.46,-104.399998 q -0.54,-1.08 -0.72,-2.16 -0.18,-1.26 -0.18,-2.34 0,-5.22 3.78,-7.92 3.78,-2.88 7.2,-2.88 6.84,0 9.9,7.02 l 39.42,92.699998 -6.3,0.18 36.18,-92.879998 q 3.06,-6.84 9.9,-6.84 z"
           id="path1481" />
        <path
           d="m 601.76352,-25.187012 q -5.04,0 -9,-3.06 -3.96,-3.24 -3.96,-7.92 V -140.20701 q 0,-4.68 3.06,-7.74 3.24,-3.24 7.92,-3.24 h 51.84 q 9.36,0 17.46,5.04 8.28,4.86 13.32,13.68 5.04,8.64 5.04,19.98 0,6.84 -2.88,13.319998 -2.7,6.48 -7.56,11.7 -4.68,5.22 -10.62,8.1 l 0.18,-4.14 q 5.04,2.7 8.28,6.48 3.42,3.6 5.22,7.92 1.98,4.14 2.34,9 0.72,4.5 0.9,7.92 0.36,3.42 1.08,5.76 0.9,2.34 3.24,3.6 3.96,2.34 4.86,6.84 1.08,4.32 -1.98,7.74 -1.98,2.34 -5.04,3.06 -3.06,0.54 -6.12,0 -3.06,-0.72 -5.04,-1.8 -3.06,-1.8 -6.12,-5.22 -3.06,-3.6 -5.04,-9.54 -1.8,-5.94 -1.8,-15.3 0,-3.06 -1.08,-5.58 -1.08,-2.7 -3.06,-4.5 -1.98,-1.98 -5.04,-2.88 -3.06,-1.08 -7.2,-1.08 h -36.36 l 2.7,-4.14 v 39.06 q 0,4.68 -2.52,7.92 -2.52,3.06 -7.02,3.06 z m 7.02,-64.44 h 41.94 q 3.24,0 6.3,-2.88 3.06,-3.06 5.04,-8.099998 1.98,-5.22 1.98,-11.34 0,-7.92 -4.32,-13.14 -4.14,-5.4 -9,-5.4 h -41.58 l 2.16,-5.76 v 50.939998 z"
           id="path1483" />
        <path
           d="m 826.58353,-88.187012 q 0,13.5 -4.5,25.2 -4.5,11.7 -12.78,20.7 -8.1,8.82 -19.44,13.86 -11.16,5.04 -24.48,5.04 -13.32,0 -24.48,-5.04 -11.16,-5.04 -19.44,-13.86 -8.1,-9 -12.6,-20.7 -4.5,-11.7 -4.5,-25.2 0,-13.499998 4.5,-25.199998 4.5,-11.7 12.6,-20.52 8.28,-9 19.44,-14.04 11.16,-5.04 24.48,-5.04 13.32,0 24.48,5.04 11.34,5.04 19.44,14.04 8.28,8.82 12.78,20.52 4.5,11.7 4.5,25.199998 z m -23.4,0 q 0,-12.059998 -4.86,-21.779998 -4.86,-9.9 -13.32,-15.66 -8.46,-5.76 -19.62,-5.76 -11.16,0 -19.62,5.76 -8.46,5.76 -13.32,15.48 -4.68,9.72 -4.68,21.959998 0,12.06 4.68,21.96 4.86,9.72 13.32,15.48 8.46,5.76 19.62,5.76 11.16,0 19.62,-5.76 8.46,-5.76 13.32,-15.48 4.86,-9.9 4.86,-21.96 z"
           id="path1485" />
        <path
           d="m 927.92364,-151.36701 q 4.14,0 7.02,3.24 3.06,3.24 3.06,6.84 0,3.42 -2.34,6.48 l -36.18,47.699998 -12.24,-16.739998 31.86,-42.3 q 3.78,-5.22 8.82,-5.22 z m -80.28,-0.36 q 5.22,0 8.82,4.68 l 79.2,105.299998 q 2.16,2.88 2.16,6.66 0,5.04 -3.6,7.92 -3.6,2.88 -7.2,2.88 -5.22,0 -8.82,-4.68 l -79.2,-105.299998 q -2.34,-2.88 -2.34,-6.48 0,-4.68 3.42,-7.74 3.6,-3.24 7.56,-3.24 z m -1.62,127.439998 q -3.96,0 -6.84,-2.88 -2.88,-3.06 -2.88,-6.66 0,-3.96 2.7,-7.38 l 36.54,-49.5 11.88,17.46 -32.4,43.92 q -3.6,5.04 -9,5.04 z"
           id="path1487" />
        <path
           d="m 1039.8838,-151.72701 q 4.14,0 7.38,3.24 3.42,3.06 3.42,7.92 0,1.62 -0.54,3.42 -0.36,1.62 -1.44,3.24 l -40.86,58.499998 3.24,-12.42 v 51.66 q 0,4.68 -3.24,7.92 -3.06,3.06 -7.2,3.06 -4.50004,0 -7.74004,-3.06 -3.06,-3.24 -3.06,-7.92 v -50.22 l 1.44,5.76 -38.88,-51.659998 q -1.8,-2.34 -2.52,-4.5 -0.72,-2.16 -0.72,-3.96 0,-4.86 3.78,-7.92 3.78,-3.06 7.74,-3.06 5.04,0 8.82,5.04 l 34.56004,47.699998 -5.04004,-0.72 31.86004,-46.619998 q 3.78,-5.4 9,-5.4 z"
           id="path1489" />
      </g>
    </g>
  </g>
</svg>
