<?xml version="1.0" encoding="UTF-8" standalone="no"?>

<svg
   version="1.1"
   id="svg2"
   width="241.46724"
   height="241.46719"
   viewBox="0 0 241.46724 241.46719"
   xmlns="http://www.w3.org/2000/svg"
   xmlns:svg="http://www.w3.org/2000/svg">
  <defs
     id="defs6">
    <linearGradient
       id="linearGradient4879">
      <stop
         style="stop-color:#7137c8;stop-opacity:1;"
         offset="0"
         id="stop4877" />
    </linearGradient>
  </defs>
  <g
     id="g8"
     transform="matrix(1.3333333,0,0,-1.3333333,-395.15881,387.42917)"
     style="display:inline">
    <path
       d="m 385.96918,170.53886 c -7.363,0 -14.007,3.916 -16.926,9.977 -0.755,1.566 -0.097,3.447 1.469,4.201 1.567,0.753 3.448,0.096 4.202,-1.469 1.877,-3.897 6.295,-6.414 11.255,-6.414 4.96,0 9.377,2.517 11.255,6.414 0.755,1.565 2.636,2.222 4.201,1.469 1.566,-0.754 2.224,-2.635 1.47,-4.201 -2.92,-6.061 -9.563,-9.977 -16.926,-9.977"
       style="display:none;fill:#ffffff;fill-opacity:1;fill-rule:nonzero;stroke:none;stroke-width:0.1"
       id="path46" />
    <g
       id="g1928">
      <path
         style="color:#000000;fill:#ffffff;-inkscape-stroke:none"
         d="m 386.91992,-290.57227 c -49.91173,0 -90.55078,40.63906 -90.55078,90.55079 0,49.91172 40.63905,90.55078 90.55078,90.55078 49.91174,0 90.54883,-40.63906 90.54883,-90.55078 0,-49.91173 -40.63709,-90.55079 -90.54883,-90.55079 z m 0,16.5 c 40.99449,0 74.04883,33.05631 74.04883,74.05079 0,40.99447 -33.05434,74.05078 -74.04883,74.05078 -40.99448,0 -74.05078,-33.05631 -74.05078,-74.05078 0,-40.99448 33.0563,-74.05079 74.05078,-74.05079 z"
         id="path4873"
         transform="scale(1,-1)" />
      <path
         id="path4873-3"
         style="display:inline;fill:#ffffff;stroke-width:13.0049;stop-color:#000000"
         transform="scale(1,-1)"
         d="m 447.60478,-197.02167 a 60.685436,45 0 0 1 -60.68544,45 60.685436,45 0 0 1 -60.68543,-45 60.685436,45 0 0 1 60.68543,-45 60.685436,45 0 0 1 60.68544,45 z" />
      <path
         id="rect5622-7-5"
         style="display:inline;fill:#ffffff;stroke-width:6.12155;stop-color:#000000"
         transform="scale(1,-1)"
         d="m 304.62071,-290.57187 c 4.57138,0 8.25159,3.68021 8.25159,8.2516 v 81.55123 c 0,4.57139 -3.68021,8.2516 -8.25159,8.2516 -4.57139,0 -8.2516,-3.68021 -8.2516,-8.2516 v -81.55123 c 0,-4.57139 3.68021,-8.2516 8.2516,-8.2516 z" />
      <path
         id="rect5622-7-5-2"
         style="display:inline;fill:#ffffff;stroke-width:6.12155;stop-color:#000000"
         transform="scale(1,-1)"
         d="m 469.21797,-290.57187 c 4.57138,0 8.25159,3.68021 8.25159,8.2516 v 81.55123 c 0,4.57139 -3.68021,8.2516 -8.25159,8.2516 -4.57139,0 -8.2516,-3.68021 -8.2516,-8.2516 v -81.55123 c 0,-4.57139 3.68021,-8.2516 8.2516,-8.2516 z" />
      <g
         id="g14963"
         clip-path="none"
         transform="matrix(0.1,0,0,0.1,5.3623619e-5,1.2188046)">
        <g
           id="g14961">
          <path
             d="m 3560.2618,2126.2986 c -53.92,0 -97.78,-43.86 -97.78,-97.78 0,-53.92 43.86,-97.78 97.78,-97.78 53.92,0 97.78,43.86 97.78,97.78 0,53.92 -43.86,97.78 -97.78,97.78"
             style="display:inline;fill:#a55eea;fill-opacity:1;fill-rule:nonzero;stroke:none"
             id="path42" />
          <path
             d="m 4178.1238,2126.2986 c -53.92,0 -97.78,-43.86 -97.78,-97.78 0,-53.92 43.86,-97.78 97.78,-97.78 53.91,0 97.78,43.86 97.78,97.78 0,53.92 -43.87,97.78 -97.78,97.78"
             style="display:inline;fill:#a55eea;fill-opacity:1;fill-rule:nonzero;stroke:none"
             id="path44" />
          <path
             d="m 3869.1974,1669.7587 c -94.664,0 -171.6727,70.0387 -171.6727,156.1273 0,13.1035 11.6736,23.7205 26.0728,23.7205 h 291.1833 c 14.3993,0 26.0811,-10.617 26.0811,-23.7205 0,-86.0886 -77.0087,-156.1273 -171.6645,-156.1273"
             style="fill:#a55eea;fill-opacity:1;fill-rule:nonzero;stroke:none;stroke-width:0.790115"
             id="path84" />
        </g>
      </g>
    </g>
  </g>
</svg>
